<svg xmlns="http://www.w3.org/2000/svg" width="24" height="24" viewBox="0 0 24 24" fill="none" stroke="currentColor" stroke-width="2" stroke-linecap="round" stroke-linejoin="round">
  <path d="M4 4h16c1.1 0 2 .9 2 2v12c0 1.1-.9 2-2 2H4c-1.1 0-2-.9-2-2V6c0-1.1.9-2 2-2z"></path>
  <path d="M22 6l-10 7L2 6"></path>
  <path d="M12 15l-1 1"></path>
  <path d="M15 15l-1 1"></path>
  <path d="M9 15l-1 1"></path>
  <circle cx="12" cy="18" r="3" fill="none"></circle>
  <path d="M9 9l6 6"></path>
  <path d="M15 9l-6 6"></path>
</svg>
